<?xml version="1.0" encoding="UTF-8"?>
<svg width="200px" height="200px" viewBox="0 0 200 200" version="1.1" xmlns="http://www.w3.org/2000/svg" xmlns:xlink="http://www.w3.org/1999/xlink">
    <title>Artboard</title>
    <g id="Artboard" stroke="none" stroke-width="1" fill="none" fill-rule="evenodd">
        <rect id="Rectangle" fill="#000000" x="0" y="0" width="200" height="200" rx="100"></rect>
        <g id="Group" transform="translate(25.000000, 25.000000)">
            <polygon id="Path" points="0 0 150 0 150 150 0 150"></polygon>
            <path d="M75.2373418,12.8164557 C109.693671,12.8164557 137.658228,40.7810127 137.658228,75.2373418 C137.658228,109.693671 109.693671,137.658228 75.2373418,137.658228 C40.7810127,137.658228 12.8164557,109.693671 12.8164557,75.2373418 C12.8164557,40.7810127 40.7810127,12.8164557 75.2373418,12.8164557 Z M75.2373418,62.7531646 C68.3710443,62.7531646 62.7531646,68.3710443 62.7531646,75.2373418 C62.7531646,82.1036392 68.3710443,87.721519 75.2373418,87.721519 C82.1036392,87.721519 87.721519,82.1036392 87.721519,75.2373418 C87.721519,68.3710443 82.1036392,62.7531646 75.2373418,62.7531646 Z" id="Shape" fill="#EBFF00" fill-rule="nonzero"></path>
        </g>
    </g>
</svg>